<mxfile host="www.draw.io" modified="2020-02-20T12:07:54.682Z" agent="Mozilla/5.0 (Windows NT 10.0; Win64; x64) AppleWebKit/537.36 (KHTML, like Gecko) Chrome/79.0.3945.130 Safari/537.36" etag="UFIBer8JOVR8XaPYe6QL" version="12.7.2" type="github" pages="2">
  <diagram name="Page-1" id="13e1069c-82ec-6db2-03f1-153e76fe0fe0">
    <mxGraphModel dx="946" dy="463" grid="1" gridSize="10" guides="1" tooltips="1" connect="1" arrows="1" fold="1" page="1" pageScale="1" pageWidth="1100" pageHeight="850" background="#ffffff" math="0" shadow="0">
      <root>
        <mxCell id="0" />
        <mxCell id="1" parent="0" />
        <mxCell id="7baba1c4bc27f4b0-2" value=":Object" style="shape=umlLifeline;perimeter=lifelinePerimeter;whiteSpace=wrap;html=1;container=1;collapsible=0;recursiveResize=0;outlineConnect=0;rounded=1;shadow=0;comic=0;labelBackgroundColor=none;strokeWidth=1;fontFamily=Verdana;fontSize=12;align=center;" parent="1" vertex="1">
          <mxGeometry x="240" y="80" width="100" height="580" as="geometry" />
        </mxCell>
        <mxCell id="7baba1c4bc27f4b0-10" value="" style="html=1;points=[];perimeter=orthogonalPerimeter;rounded=0;shadow=0;comic=0;labelBackgroundColor=none;strokeWidth=1;fontFamily=Verdana;fontSize=12;align=center;" parent="7baba1c4bc27f4b0-2" vertex="1">
          <mxGeometry x="45" y="100" width="10" height="230" as="geometry" />
        </mxCell>
        <mxCell id="7baba1c4bc27f4b0-3" value=":Object" style="shape=umlLifeline;perimeter=lifelinePerimeter;whiteSpace=wrap;html=1;container=1;collapsible=0;recursiveResize=0;outlineConnect=0;rounded=1;shadow=0;comic=0;labelBackgroundColor=none;strokeWidth=1;fontFamily=Verdana;fontSize=12;align=center;" parent="1" vertex="1">
          <mxGeometry x="400" y="80" width="100" height="580" as="geometry" />
        </mxCell>
        <mxCell id="7baba1c4bc27f4b0-13" value="" style="html=1;points=[];perimeter=orthogonalPerimeter;rounded=0;shadow=0;comic=0;labelBackgroundColor=none;strokeWidth=1;fontFamily=Verdana;fontSize=12;align=center;" parent="7baba1c4bc27f4b0-3" vertex="1">
          <mxGeometry x="45" y="120" width="10" height="200" as="geometry" />
        </mxCell>
        <mxCell id="7baba1c4bc27f4b0-4" value=":Object" style="shape=umlLifeline;perimeter=lifelinePerimeter;whiteSpace=wrap;html=1;container=1;collapsible=0;recursiveResize=0;outlineConnect=0;rounded=1;shadow=0;comic=0;labelBackgroundColor=none;strokeWidth=1;fontFamily=Verdana;fontSize=12;align=center;" parent="1" vertex="1">
          <mxGeometry x="540" y="80" width="100" height="580" as="geometry" />
        </mxCell>
        <mxCell id="7baba1c4bc27f4b0-5" value=":Object" style="shape=umlLifeline;perimeter=lifelinePerimeter;whiteSpace=wrap;html=1;container=1;collapsible=0;recursiveResize=0;outlineConnect=0;rounded=1;shadow=0;comic=0;labelBackgroundColor=none;strokeWidth=1;fontFamily=Verdana;fontSize=12;align=center;" parent="1" vertex="1">
          <mxGeometry x="680" y="80" width="100" height="580" as="geometry" />
        </mxCell>
        <mxCell id="7baba1c4bc27f4b0-6" value=":Object" style="shape=umlLifeline;perimeter=lifelinePerimeter;whiteSpace=wrap;html=1;container=1;collapsible=0;recursiveResize=0;outlineConnect=0;rounded=1;shadow=0;comic=0;labelBackgroundColor=none;strokeWidth=1;fontFamily=Verdana;fontSize=12;align=center;" parent="1" vertex="1">
          <mxGeometry x="820" y="80" width="100" height="580" as="geometry" />
        </mxCell>
        <mxCell id="7baba1c4bc27f4b0-7" value=":Object" style="shape=umlLifeline;perimeter=lifelinePerimeter;whiteSpace=wrap;html=1;container=1;collapsible=0;recursiveResize=0;outlineConnect=0;rounded=1;shadow=0;comic=0;labelBackgroundColor=none;strokeWidth=1;fontFamily=Verdana;fontSize=12;align=center;" parent="1" vertex="1">
          <mxGeometry x="960" y="80" width="100" height="580" as="geometry" />
        </mxCell>
        <mxCell id="7baba1c4bc27f4b0-8" value=":Object" style="shape=umlLifeline;perimeter=lifelinePerimeter;whiteSpace=wrap;html=1;container=1;collapsible=0;recursiveResize=0;outlineConnect=0;rounded=1;shadow=0;comic=0;labelBackgroundColor=none;strokeWidth=1;fontFamily=Verdana;fontSize=12;align=center;" parent="1" vertex="1">
          <mxGeometry x="100" y="80" width="100" height="580" as="geometry" />
        </mxCell>
        <mxCell id="7baba1c4bc27f4b0-9" value="" style="html=1;points=[];perimeter=orthogonalPerimeter;rounded=0;shadow=0;comic=0;labelBackgroundColor=none;strokeWidth=1;fontFamily=Verdana;fontSize=12;align=center;" parent="7baba1c4bc27f4b0-8" vertex="1">
          <mxGeometry x="45" y="100" width="10" height="440" as="geometry" />
        </mxCell>
        <mxCell id="7baba1c4bc27f4b0-16" value="" style="html=1;points=[];perimeter=orthogonalPerimeter;rounded=0;shadow=0;comic=0;labelBackgroundColor=none;strokeWidth=1;fontFamily=Verdana;fontSize=12;align=center;" parent="1" vertex="1">
          <mxGeometry x="585" y="220" width="10" height="180" as="geometry" />
        </mxCell>
        <mxCell id="7baba1c4bc27f4b0-17" value="dispatch" style="html=1;verticalAlign=bottom;endArrow=block;labelBackgroundColor=none;fontFamily=Verdana;fontSize=12;edgeStyle=elbowEdgeStyle;elbow=vertical;" parent="1" source="7baba1c4bc27f4b0-13" target="7baba1c4bc27f4b0-16" edge="1">
          <mxGeometry relative="1" as="geometry">
            <mxPoint x="510" y="220" as="sourcePoint" />
            <Array as="points">
              <mxPoint x="460" y="220" />
            </Array>
          </mxGeometry>
        </mxCell>
        <mxCell id="7baba1c4bc27f4b0-19" value="" style="html=1;points=[];perimeter=orthogonalPerimeter;rounded=0;shadow=0;comic=0;labelBackgroundColor=none;strokeWidth=1;fontFamily=Verdana;fontSize=12;align=center;" parent="1" vertex="1">
          <mxGeometry x="725" y="230" width="10" height="40" as="geometry" />
        </mxCell>
        <mxCell id="7baba1c4bc27f4b0-20" value="dispatch" style="html=1;verticalAlign=bottom;endArrow=block;entryX=0;entryY=0;labelBackgroundColor=none;fontFamily=Verdana;fontSize=12;edgeStyle=elbowEdgeStyle;elbow=vertical;" parent="1" source="7baba1c4bc27f4b0-16" target="7baba1c4bc27f4b0-19" edge="1">
          <mxGeometry relative="1" as="geometry">
            <mxPoint x="650" y="230" as="sourcePoint" />
          </mxGeometry>
        </mxCell>
        <mxCell id="7baba1c4bc27f4b0-21" value="return" style="html=1;verticalAlign=bottom;endArrow=open;dashed=1;endSize=8;labelBackgroundColor=none;fontFamily=Verdana;fontSize=12;edgeStyle=elbowEdgeStyle;elbow=vertical;" parent="1" source="7baba1c4bc27f4b0-19" target="7baba1c4bc27f4b0-16" edge="1">
          <mxGeometry relative="1" as="geometry">
            <mxPoint x="650" y="306" as="targetPoint" />
            <Array as="points">
              <mxPoint x="670" y="260" />
              <mxPoint x="700" y="260" />
            </Array>
          </mxGeometry>
        </mxCell>
        <mxCell id="7baba1c4bc27f4b0-22" value="" style="html=1;points=[];perimeter=orthogonalPerimeter;rounded=0;shadow=0;comic=0;labelBackgroundColor=none;strokeWidth=1;fontFamily=Verdana;fontSize=12;align=center;" parent="1" vertex="1">
          <mxGeometry x="585" y="440" width="10" height="140" as="geometry" />
        </mxCell>
        <mxCell id="7baba1c4bc27f4b0-23" value="dispatch" style="html=1;verticalAlign=bottom;endArrow=block;entryX=0;entryY=0;labelBackgroundColor=none;fontFamily=Verdana;fontSize=12;" parent="1" source="7baba1c4bc27f4b0-9" target="7baba1c4bc27f4b0-22" edge="1">
          <mxGeometry relative="1" as="geometry">
            <mxPoint x="510" y="420" as="sourcePoint" />
          </mxGeometry>
        </mxCell>
        <mxCell id="7baba1c4bc27f4b0-25" value="" style="html=1;points=[];perimeter=orthogonalPerimeter;rounded=0;shadow=0;comic=0;labelBackgroundColor=none;strokeColor=#000000;strokeWidth=1;fillColor=#FFFFFF;fontFamily=Verdana;fontSize=12;fontColor=#000000;align=center;" parent="1" vertex="1">
          <mxGeometry x="1005" y="460" width="10" height="30" as="geometry" />
        </mxCell>
        <mxCell id="7baba1c4bc27f4b0-26" value="dispatch" style="html=1;verticalAlign=bottom;endArrow=block;entryX=0;entryY=0;labelBackgroundColor=none;fontFamily=Verdana;fontSize=12;" parent="1" source="7baba1c4bc27f4b0-22" target="7baba1c4bc27f4b0-25" edge="1">
          <mxGeometry relative="1" as="geometry">
            <mxPoint x="930" y="340" as="sourcePoint" />
          </mxGeometry>
        </mxCell>
        <mxCell id="7baba1c4bc27f4b0-27" value="return" style="html=1;verticalAlign=bottom;endArrow=open;dashed=1;endSize=8;exitX=0;exitY=0.95;labelBackgroundColor=none;fontFamily=Verdana;fontSize=12;" parent="1" source="7baba1c4bc27f4b0-25" target="7baba1c4bc27f4b0-22" edge="1">
          <mxGeometry relative="1" as="geometry">
            <mxPoint x="930" y="416" as="targetPoint" />
          </mxGeometry>
        </mxCell>
        <mxCell id="7baba1c4bc27f4b0-28" value="" style="html=1;points=[];perimeter=orthogonalPerimeter;rounded=0;shadow=0;comic=0;labelBackgroundColor=none;strokeWidth=1;fontFamily=Verdana;fontSize=12;align=center;" parent="1" vertex="1">
          <mxGeometry x="870" y="550" width="10" height="60" as="geometry" />
        </mxCell>
        <mxCell id="7baba1c4bc27f4b0-29" value="dispatch" style="html=1;verticalAlign=bottom;endArrow=block;entryX=0;entryY=0;labelBackgroundColor=none;fontFamily=Verdana;fontSize=12;edgeStyle=elbowEdgeStyle;elbow=vertical;" parent="1" source="7baba1c4bc27f4b0-37" target="7baba1c4bc27f4b0-28" edge="1">
          <mxGeometry relative="1" as="geometry">
            <mxPoint x="800" y="550" as="sourcePoint" />
          </mxGeometry>
        </mxCell>
        <mxCell id="7baba1c4bc27f4b0-30" value="return" style="html=1;verticalAlign=bottom;endArrow=open;dashed=1;endSize=8;labelBackgroundColor=none;fontFamily=Verdana;fontSize=12;edgeStyle=elbowEdgeStyle;elbow=vertical;" parent="1" source="7baba1c4bc27f4b0-28" target="7baba1c4bc27f4b0-9" edge="1">
          <mxGeometry relative="1" as="geometry">
            <mxPoint x="800" y="626" as="targetPoint" />
            <Array as="points">
              <mxPoint x="570" y="600" />
            </Array>
          </mxGeometry>
        </mxCell>
        <mxCell id="7baba1c4bc27f4b0-11" value="dispatch" style="html=1;verticalAlign=bottom;endArrow=block;entryX=0;entryY=0;labelBackgroundColor=none;fontFamily=Verdana;fontSize=12;edgeStyle=elbowEdgeStyle;elbow=vertical;" parent="1" source="7baba1c4bc27f4b0-9" target="7baba1c4bc27f4b0-10" edge="1">
          <mxGeometry relative="1" as="geometry">
            <mxPoint x="220" y="190" as="sourcePoint" />
          </mxGeometry>
        </mxCell>
        <mxCell id="7baba1c4bc27f4b0-14" value="dispatch" style="html=1;verticalAlign=bottom;endArrow=block;entryX=0;entryY=0;labelBackgroundColor=none;fontFamily=Verdana;fontSize=12;edgeStyle=elbowEdgeStyle;elbow=vertical;" parent="1" source="7baba1c4bc27f4b0-10" target="7baba1c4bc27f4b0-13" edge="1">
          <mxGeometry relative="1" as="geometry">
            <mxPoint x="370" y="200" as="sourcePoint" />
          </mxGeometry>
        </mxCell>
        <mxCell id="7baba1c4bc27f4b0-34" value="" style="html=1;points=[];perimeter=orthogonalPerimeter;rounded=0;shadow=0;comic=0;labelBackgroundColor=none;strokeWidth=1;fontFamily=Verdana;fontSize=12;align=center;" parent="1" vertex="1">
          <mxGeometry x="590" y="300" width="10" height="70" as="geometry" />
        </mxCell>
        <mxCell id="7baba1c4bc27f4b0-35" value="dispatch" style="html=1;verticalAlign=bottom;endArrow=block;labelBackgroundColor=none;fontFamily=Verdana;fontSize=12;elbow=vertical;edgeStyle=orthogonalEdgeStyle;curved=1;entryX=1;entryY=0.286;entryPerimeter=0;exitX=1.038;exitY=0.345;exitPerimeter=0;" parent="1" source="7baba1c4bc27f4b0-16" target="7baba1c4bc27f4b0-34" edge="1">
          <mxGeometry relative="1" as="geometry">
            <mxPoint x="465" y="230" as="sourcePoint" />
            <mxPoint x="595" y="230" as="targetPoint" />
            <Array as="points">
              <mxPoint x="650" y="282" />
              <mxPoint x="650" y="320" />
            </Array>
          </mxGeometry>
        </mxCell>
        <mxCell id="7baba1c4bc27f4b0-36" value="dispatch" style="html=1;verticalAlign=bottom;endArrow=block;labelBackgroundColor=none;fontFamily=Verdana;fontSize=12;elbow=vertical;edgeStyle=orthogonalEdgeStyle;curved=1;exitX=1.066;exitY=0.713;exitPerimeter=0;" parent="1" source="7baba1c4bc27f4b0-34" edge="1">
          <mxGeometry relative="1" as="geometry">
            <mxPoint x="610.3333333333333" y="350" as="sourcePoint" />
            <mxPoint x="595" y="389" as="targetPoint" />
            <Array as="points">
              <mxPoint x="650" y="350" />
              <mxPoint x="650" y="389" />
            </Array>
          </mxGeometry>
        </mxCell>
        <mxCell id="7baba1c4bc27f4b0-37" value="" style="html=1;points=[];perimeter=orthogonalPerimeter;rounded=0;shadow=0;comic=0;labelBackgroundColor=none;strokeWidth=1;fontFamily=Verdana;fontSize=12;align=center;" parent="1" vertex="1">
          <mxGeometry x="590" y="520" width="10" height="40" as="geometry" />
        </mxCell>
        <mxCell id="7baba1c4bc27f4b0-39" value="dispatch" style="html=1;verticalAlign=bottom;endArrow=block;labelBackgroundColor=none;fontFamily=Verdana;fontSize=12;elbow=vertical;edgeStyle=orthogonalEdgeStyle;curved=1;entryX=1;entryY=0.286;entryPerimeter=0;exitX=1.038;exitY=0.345;exitPerimeter=0;" parent="1" edge="1">
          <mxGeometry relative="1" as="geometry">
            <mxPoint x="595.3333333333335" y="501" as="sourcePoint" />
            <mxPoint x="600.3333333333335" y="539.3333333333334" as="targetPoint" />
            <Array as="points">
              <mxPoint x="650" y="501" />
              <mxPoint x="650" y="539" />
            </Array>
          </mxGeometry>
        </mxCell>
        <mxCell id="7baba1c4bc27f4b0-40" value="Note" style="shape=note;whiteSpace=wrap;html=1;size=14;verticalAlign=top;align=left;spacingTop=-6;rounded=0;shadow=0;comic=0;labelBackgroundColor=none;strokeWidth=1;fontFamily=Verdana;fontSize=12" parent="1" vertex="1">
          <mxGeometry x="100" y="30" width="100" height="35" as="geometry" />
        </mxCell>
        <mxCell id="7baba1c4bc27f4b0-41" value="Note" style="shape=note;whiteSpace=wrap;html=1;size=14;verticalAlign=top;align=left;spacingTop=-6;rounded=0;shadow=0;comic=0;labelBackgroundColor=none;strokeWidth=1;fontFamily=Verdana;fontSize=12" parent="1" vertex="1">
          <mxGeometry x="240" y="30" width="100" height="35" as="geometry" />
        </mxCell>
        <mxCell id="7baba1c4bc27f4b0-42" value="Note" style="shape=note;whiteSpace=wrap;html=1;size=14;verticalAlign=top;align=left;spacingTop=-6;rounded=0;shadow=0;comic=0;labelBackgroundColor=none;strokeWidth=1;fontFamily=Verdana;fontSize=12" parent="1" vertex="1">
          <mxGeometry x="400" y="30" width="100" height="35" as="geometry" />
        </mxCell>
        <mxCell id="7baba1c4bc27f4b0-43" value="Note" style="shape=note;whiteSpace=wrap;html=1;size=14;verticalAlign=top;align=left;spacingTop=-6;rounded=0;shadow=0;comic=0;labelBackgroundColor=none;strokeWidth=1;fontFamily=Verdana;fontSize=12" parent="1" vertex="1">
          <mxGeometry x="540" y="30" width="100" height="35" as="geometry" />
        </mxCell>
        <mxCell id="7baba1c4bc27f4b0-44" value="Note" style="shape=note;whiteSpace=wrap;html=1;size=14;verticalAlign=top;align=left;spacingTop=-6;rounded=0;shadow=0;comic=0;labelBackgroundColor=none;strokeWidth=1;fontFamily=Verdana;fontSize=12" parent="1" vertex="1">
          <mxGeometry x="680" y="30" width="100" height="35" as="geometry" />
        </mxCell>
        <mxCell id="7baba1c4bc27f4b0-45" value="Note" style="shape=note;whiteSpace=wrap;html=1;size=14;verticalAlign=top;align=left;spacingTop=-6;rounded=0;shadow=0;comic=0;labelBackgroundColor=none;strokeWidth=1;fontFamily=Verdana;fontSize=12" parent="1" vertex="1">
          <mxGeometry x="820" y="30" width="100" height="35" as="geometry" />
        </mxCell>
        <mxCell id="7baba1c4bc27f4b0-46" value="Note" style="shape=note;whiteSpace=wrap;html=1;size=14;verticalAlign=top;align=left;spacingTop=-6;rounded=0;shadow=0;comic=0;labelBackgroundColor=none;strokeWidth=1;fontFamily=Verdana;fontSize=12" parent="1" vertex="1">
          <mxGeometry x="960" y="30" width="100" height="35" as="geometry" />
        </mxCell>
      </root>
    </mxGraphModel>
  </diagram>
  <diagram id="ITVbMP8zfWYvRuNHPqF-" name="Page-2">
    <mxGraphModel dx="1113" dy="545" grid="1" gridSize="10" guides="1" tooltips="1" connect="1" arrows="1" fold="1" page="1" pageScale="1" pageWidth="827" pageHeight="1169" math="0" shadow="0">
      <root>
        <mxCell id="ZBBEk2cNsRWv8i3ho4RV-0" />
        <mxCell id="ZBBEk2cNsRWv8i3ho4RV-1" parent="ZBBEk2cNsRWv8i3ho4RV-0" />
        <mxCell id="H1Z_MDF-a9jx8XFVuI_Q-0" value="AutoSdkManager" style="shape=umlLifeline;perimeter=lifelinePerimeter;whiteSpace=wrap;html=1;container=1;collapsible=0;recursiveResize=0;outlineConnect=0;" vertex="1" parent="ZBBEk2cNsRWv8i3ho4RV-1">
          <mxGeometry x="110" y="50" width="100" height="300" as="geometry" />
        </mxCell>
        <mxCell id="H1Z_MDF-a9jx8XFVuI_Q-1" value="" style="html=1;points=[];perimeter=orthogonalPerimeter;" vertex="1" parent="H1Z_MDF-a9jx8XFVuI_Q-0">
          <mxGeometry x="45" y="70" width="10" height="110" as="geometry" />
        </mxCell>
        <mxCell id="H1Z_MDF-a9jx8XFVuI_Q-2" value="init" style="html=1;verticalAlign=bottom;startArrow=oval;endArrow=block;startSize=8;" edge="1" target="H1Z_MDF-a9jx8XFVuI_Q-1" parent="H1Z_MDF-a9jx8XFVuI_Q-0">
          <mxGeometry relative="1" as="geometry">
            <mxPoint x="-20" y="70" as="sourcePoint" />
          </mxGeometry>
        </mxCell>
        <mxCell id="H1Z_MDF-a9jx8XFVuI_Q-3" value="" style="html=1;points=[];perimeter=orthogonalPerimeter;" vertex="1" parent="ZBBEk2cNsRWv8i3ho4RV-1">
          <mxGeometry x="160" y="140" width="10" height="80" as="geometry" />
        </mxCell>
        <mxCell id="H1Z_MDF-a9jx8XFVuI_Q-4" value="startInitialise" style="edgeStyle=orthogonalEdgeStyle;html=1;align=left;spacingLeft=2;endArrow=block;rounded=0;entryX=1;entryY=0;" edge="1" target="H1Z_MDF-a9jx8XFVuI_Q-3" parent="ZBBEk2cNsRWv8i3ho4RV-1">
          <mxGeometry relative="1" as="geometry">
            <mxPoint x="165" y="130" as="sourcePoint" />
            <Array as="points">
              <mxPoint x="190" y="130" />
            </Array>
          </mxGeometry>
        </mxCell>
        <mxCell id="H1Z_MDF-a9jx8XFVuI_Q-5" value="" style="html=1;points=[];perimeter=orthogonalPerimeter;" vertex="1" parent="ZBBEk2cNsRWv8i3ho4RV-1">
          <mxGeometry x="165" y="160" width="10" height="50" as="geometry" />
        </mxCell>
        <mxCell id="H1Z_MDF-a9jx8XFVuI_Q-6" value="initNavkitAsynchorize" style="edgeStyle=orthogonalEdgeStyle;html=1;align=left;spacingLeft=2;endArrow=block;rounded=0;entryX=1;entryY=0;" edge="1" target="H1Z_MDF-a9jx8XFVuI_Q-5" parent="ZBBEk2cNsRWv8i3ho4RV-1">
          <mxGeometry x="-0.1429" relative="1" as="geometry">
            <mxPoint x="170" y="150" as="sourcePoint" />
            <Array as="points">
              <mxPoint x="185" y="150" />
              <mxPoint x="185" y="160" />
            </Array>
            <mxPoint as="offset" />
          </mxGeometry>
        </mxCell>
        <mxCell id="H1Z_MDF-a9jx8XFVuI_Q-7" value="NavKitInitializationTask" style="shape=umlLifeline;perimeter=lifelinePerimeter;whiteSpace=wrap;html=1;container=1;collapsible=0;recursiveResize=0;outlineConnect=0;" vertex="1" parent="ZBBEk2cNsRWv8i3ho4RV-1">
          <mxGeometry x="510" y="50" width="130" height="440" as="geometry" />
        </mxCell>
        <mxCell id="H1Z_MDF-a9jx8XFVuI_Q-8" value="" style="html=1;points=[];perimeter=orthogonalPerimeter;" vertex="1" parent="H1Z_MDF-a9jx8XFVuI_Q-7">
          <mxGeometry x="60" y="130" width="10" height="10" as="geometry" />
        </mxCell>
        <mxCell id="H1Z_MDF-a9jx8XFVuI_Q-17" value="" style="html=1;points=[];perimeter=orthogonalPerimeter;" vertex="1" parent="H1Z_MDF-a9jx8XFVuI_Q-7">
          <mxGeometry x="60" y="240" width="10" height="150" as="geometry" />
        </mxCell>
        <mxCell id="H1Z_MDF-a9jx8XFVuI_Q-18" value="run" style="html=1;verticalAlign=bottom;startArrow=oval;endArrow=block;startSize=8;" edge="1" target="H1Z_MDF-a9jx8XFVuI_Q-17" parent="H1Z_MDF-a9jx8XFVuI_Q-7">
          <mxGeometry relative="1" as="geometry">
            <mxPoint x="-20" y="240" as="sourcePoint" />
          </mxGeometry>
        </mxCell>
        <mxCell id="H1Z_MDF-a9jx8XFVuI_Q-9" value="new" style="html=1;verticalAlign=bottom;startArrow=oval;endArrow=block;startSize=8;" edge="1" target="H1Z_MDF-a9jx8XFVuI_Q-8" parent="ZBBEk2cNsRWv8i3ho4RV-1" source="H1Z_MDF-a9jx8XFVuI_Q-5">
          <mxGeometry x="0.6456" y="5" relative="1" as="geometry">
            <mxPoint x="340" y="180" as="sourcePoint" />
            <mxPoint as="offset" />
          </mxGeometry>
        </mxCell>
        <mxCell id="H1Z_MDF-a9jx8XFVuI_Q-10" value="InitializationProcedure" style="shape=umlLifeline;perimeter=lifelinePerimeter;whiteSpace=wrap;html=1;container=1;collapsible=0;recursiveResize=0;outlineConnect=0;" vertex="1" parent="ZBBEk2cNsRWv8i3ho4RV-1">
          <mxGeometry x="320" y="50" width="120" height="420" as="geometry" />
        </mxCell>
        <mxCell id="H1Z_MDF-a9jx8XFVuI_Q-11" value="" style="html=1;points=[];perimeter=orthogonalPerimeter;" vertex="1" parent="H1Z_MDF-a9jx8XFVuI_Q-10">
          <mxGeometry x="56.25" y="150" width="7.5" height="80" as="geometry" />
        </mxCell>
        <mxCell id="H1Z_MDF-a9jx8XFVuI_Q-15" value="" style="html=1;points=[];perimeter=orthogonalPerimeter;" vertex="1" parent="H1Z_MDF-a9jx8XFVuI_Q-10">
          <mxGeometry x="60" y="180" width="10" height="40" as="geometry" />
        </mxCell>
        <mxCell id="H1Z_MDF-a9jx8XFVuI_Q-16" value="new Thread(runnable).start()" style="edgeStyle=orthogonalEdgeStyle;html=1;align=left;spacingLeft=2;endArrow=block;rounded=0;entryX=1;entryY=0;exitX=1.027;exitY=0.114;exitDx=0;exitDy=0;exitPerimeter=0;" edge="1" target="H1Z_MDF-a9jx8XFVuI_Q-15" parent="H1Z_MDF-a9jx8XFVuI_Q-10" source="H1Z_MDF-a9jx8XFVuI_Q-11">
          <mxGeometry x="-0.8387" y="9" relative="1" as="geometry">
            <mxPoint x="69" y="160" as="sourcePoint" />
            <Array as="points">
              <mxPoint x="94" y="159" />
              <mxPoint x="94" y="180" />
            </Array>
            <mxPoint as="offset" />
          </mxGeometry>
        </mxCell>
        <mxCell id="H1Z_MDF-a9jx8XFVuI_Q-25" value="" style="html=1;points=[];perimeter=orthogonalPerimeter;" vertex="1" parent="H1Z_MDF-a9jx8XFVuI_Q-10">
          <mxGeometry x="53.75" y="290" width="10" height="80" as="geometry" />
        </mxCell>
        <mxCell id="H1Z_MDF-a9jx8XFVuI_Q-27" value="" style="html=1;points=[];perimeter=orthogonalPerimeter;" vertex="1" parent="H1Z_MDF-a9jx8XFVuI_Q-10">
          <mxGeometry x="60" y="330" width="10" height="30" as="geometry" />
        </mxCell>
        <mxCell id="H1Z_MDF-a9jx8XFVuI_Q-28" value="action.run()" style="edgeStyle=orthogonalEdgeStyle;html=1;align=left;spacingLeft=2;endArrow=block;rounded=0;entryX=1;entryY=0;" edge="1" target="H1Z_MDF-a9jx8XFVuI_Q-27" parent="H1Z_MDF-a9jx8XFVuI_Q-10">
          <mxGeometry relative="1" as="geometry">
            <mxPoint x="65" y="310" as="sourcePoint" />
            <Array as="points">
              <mxPoint x="90" y="310" />
            </Array>
          </mxGeometry>
        </mxCell>
        <mxCell id="H1Z_MDF-a9jx8XFVuI_Q-12" value="run" style="html=1;verticalAlign=bottom;startArrow=oval;endArrow=block;startSize=8;entryX=0.089;entryY=0.021;entryDx=0;entryDy=0;entryPerimeter=0;exitX=1.067;exitY=0.829;exitDx=0;exitDy=0;exitPerimeter=0;" edge="1" target="H1Z_MDF-a9jx8XFVuI_Q-11" parent="ZBBEk2cNsRWv8i3ho4RV-1" source="H1Z_MDF-a9jx8XFVuI_Q-5">
          <mxGeometry x="0.0598" y="-19" relative="1" as="geometry">
            <mxPoint x="180" y="201" as="sourcePoint" />
            <Array as="points">
              <mxPoint x="270" y="201" />
            </Array>
            <mxPoint as="offset" />
          </mxGeometry>
        </mxCell>
        <mxCell id="H1Z_MDF-a9jx8XFVuI_Q-19" value="AutoSdkManagerHelper" style="shape=umlLifeline;perimeter=lifelinePerimeter;whiteSpace=wrap;html=1;container=1;collapsible=0;recursiveResize=0;outlineConnect=0;" vertex="1" parent="ZBBEk2cNsRWv8i3ho4RV-1">
          <mxGeometry x="670" y="50" width="130" height="460" as="geometry" />
        </mxCell>
        <mxCell id="H1Z_MDF-a9jx8XFVuI_Q-20" value="" style="html=1;points=[];perimeter=orthogonalPerimeter;" vertex="1" parent="H1Z_MDF-a9jx8XFVuI_Q-19">
          <mxGeometry x="60" y="250" width="10" height="10" as="geometry" />
        </mxCell>
        <mxCell id="H1Z_MDF-a9jx8XFVuI_Q-22" value="" style="html=1;points=[];perimeter=orthogonalPerimeter;" vertex="1" parent="H1Z_MDF-a9jx8XFVuI_Q-19">
          <mxGeometry x="60" y="270" width="10" height="10" as="geometry" />
        </mxCell>
        <mxCell id="H1Z_MDF-a9jx8XFVuI_Q-21" value="copyAutoSdkConfigs" style="html=1;verticalAlign=bottom;startArrow=oval;endArrow=block;startSize=8;exitX=1.144;exitY=0.107;exitDx=0;exitDy=0;exitPerimeter=0;" edge="1" target="H1Z_MDF-a9jx8XFVuI_Q-20" parent="ZBBEk2cNsRWv8i3ho4RV-1" source="H1Z_MDF-a9jx8XFVuI_Q-17">
          <mxGeometry relative="1" as="geometry">
            <mxPoint x="670" y="300" as="sourcePoint" />
          </mxGeometry>
        </mxCell>
        <mxCell id="H1Z_MDF-a9jx8XFVuI_Q-23" value="makeSdkWritableDir" style="html=1;verticalAlign=bottom;startArrow=oval;endArrow=block;startSize=8;" edge="1" target="H1Z_MDF-a9jx8XFVuI_Q-22" parent="ZBBEk2cNsRWv8i3ho4RV-1">
          <mxGeometry relative="1" as="geometry">
            <mxPoint x="580" y="325" as="sourcePoint" />
          </mxGeometry>
        </mxCell>
        <mxCell id="H1Z_MDF-a9jx8XFVuI_Q-24" value="条件:&lt;br&gt;updateStorageFiles" style="shape=note;whiteSpace=wrap;html=1;size=14;verticalAlign=top;align=left;spacingTop=-6;" vertex="1" parent="ZBBEk2cNsRWv8i3ho4RV-1">
          <mxGeometry x="680" y="240" width="130" height="30" as="geometry" />
        </mxCell>
        <mxCell id="H1Z_MDF-a9jx8XFVuI_Q-26" value="parallelPhaseNotification.&lt;br&gt;signalPhaseComplete" style="html=1;verticalAlign=bottom;startArrow=oval;endArrow=block;startSize=8;" edge="1" target="H1Z_MDF-a9jx8XFVuI_Q-25" parent="ZBBEk2cNsRWv8i3ho4RV-1">
          <mxGeometry relative="1" as="geometry">
            <mxPoint x="570" y="340" as="sourcePoint" />
          </mxGeometry>
        </mxCell>
        <mxCell id="H1Z_MDF-a9jx8XFVuI_Q-38" value="action为AutoSdkManager中&amp;nbsp;phase 0时，setBarrierAction传入的 runnable对象" style="shape=note;whiteSpace=wrap;html=1;size=14;verticalAlign=top;align=left;spacingTop=-6;" vertex="1" parent="ZBBEk2cNsRWv8i3ho4RV-1">
          <mxGeometry x="400" y="390" width="150" height="70" as="geometry" />
        </mxCell>
        <mxCell id="H1Z_MDF-a9jx8XFVuI_Q-39" value="AutoSdkNavigationServiceJNI" style="shape=umlLifeline;perimeter=lifelinePerimeter;whiteSpace=wrap;html=1;container=1;collapsible=0;recursiveResize=0;outlineConnect=0;" vertex="1" parent="ZBBEk2cNsRWv8i3ho4RV-1">
          <mxGeometry x="827" y="360" width="163" height="170" as="geometry" />
        </mxCell>
        <mxCell id="H1Z_MDF-a9jx8XFVuI_Q-40" value="" style="html=1;points=[];perimeter=orthogonalPerimeter;" vertex="1" parent="H1Z_MDF-a9jx8XFVuI_Q-39">
          <mxGeometry x="76.5" y="70" width="10" height="10" as="geometry" />
        </mxCell>
        <mxCell id="H1Z_MDF-a9jx8XFVuI_Q-41" value="initService(autoSdkServiceCallback, builder.build().toByteArray())" style="html=1;verticalAlign=bottom;startArrow=oval;endArrow=block;startSize=8;" edge="1" target="H1Z_MDF-a9jx8XFVuI_Q-40" parent="ZBBEk2cNsRWv8i3ho4RV-1" source="H1Z_MDF-a9jx8XFVuI_Q-17">
          <mxGeometry x="0.01" y="-30" relative="1" as="geometry">
            <mxPoint x="843" y="410" as="sourcePoint" />
            <mxPoint as="offset" />
          </mxGeometry>
        </mxCell>
        <mxCell id="H1Z_MDF-a9jx8XFVuI_Q-42" value="AutoSdkServiceCallbackImpl" style="shape=umlLifeline;perimeter=lifelinePerimeter;whiteSpace=wrap;html=1;container=1;collapsible=0;recursiveResize=0;outlineConnect=0;" vertex="1" parent="ZBBEk2cNsRWv8i3ho4RV-1">
          <mxGeometry x="1010" y="50" width="160" height="540" as="geometry" />
        </mxCell>
      </root>
    </mxGraphModel>
  </diagram>
</mxfile>
